<svg
  width="18"
  height="18"
  viewBox="0 0 18 18"
  fill="none"
  xmlns="http://www.w3.org/2000/svg"
>
<g clip-path="url(#clip0_344_7767)">
  <path
    d="M6.75 0.75V2.25H11.25V0.75H12.75V2.25H15.75C15.9489 2.25 16.1397 2.32902 16.2803 2.46967C16.421 2.61032 16.5 2.80109 16.5 3V15C16.5 15.1989 16.421 15.3897 16.2803 15.5303C16.1397 15.671 15.9489 15.75 15.75 15.75H2.25C2.05109 15.75 1.86032 15.671 1.71967 15.5303C1.57902 15.3897 1.5 15.1989 1.5 15V3C1.5 2.80109 1.57902 2.61032 1.71967 2.46967C1.86032 2.32902 2.05109 2.25 2.25 2.25H5.25V0.75H6.75ZM15 6H3V14.25H15V6ZM11.277 7.602L12.3375 8.6625L8.625 12.375L5.973 9.723L7.035 8.6625L8.62575 10.254L11.2777 7.602H11.277Z"
    fill="currentColor"
  />
</g>
<defs>
  <clipPath id="clip0_344_7767">
    <rect width="18" height="18" fill="white" />
  </clipPath>
</defs>
</svg>
