<svg
  width="18"
  height="18"
  viewBox="0 0 18 18"
  fill="none"
  xmlns="http://www.w3.org/2000/svg"
>
<path
  d="M9.75 13.5V15H14.25V16.5H9.75C8.92155 16.5 8.25 15.8284 8.25 15V13.5H6C4.34315 13.5 3 12.1568 3 10.5V5.25C3 4.83579 3.33579 4.5 3.75 4.5H6V1.5H7.5V4.5H10.5V1.5H12V4.5H14.25C14.6642 4.5 15 4.83579 15 5.25V10.5C15 12.1568 13.6568 13.5 12 13.5H9.75ZM6 12H12C12.8285 12 13.5 11.3284 13.5 10.5V8.25H4.5V10.5C4.5 11.3284 5.17157 12 6 12ZM13.5 6H4.5V6.75H13.5V6ZM9 10.875C8.58578 10.875 8.25 10.5392 8.25 10.125C8.25 9.71077 8.58578 9.375 9 9.375C9.41423 9.375 9.75 9.71077 9.75 10.125C9.75 10.5392 9.41423 10.875 9 10.875Z"
  fill="currentColor"
/>
</svg>
