<svg
  width="25"
  height="24"
  viewBox="0 0 25 24"
  fill="none"
  xmlns="http://www.w3.org/2000/svg"
>
    <path
      d="M16.7852 2.95494C16.4283 2.71702 16.0011 2.60764 15.5738 2.6448L4.51455 3.60647C4.00353 3.65091 3.61133 4.0787 3.61133 4.59164V16.1666C3.61133 16.5753 3.74389 16.973 3.98911 17.3L6.75617 20.9894C6.95903 21.2599 7.28602 21.4079 7.62313 21.382L20.4761 20.3933C20.9913 20.3537 21.3891 19.9241 21.3891 19.4074V6.52672C21.3891 6.2128 21.2322 5.91965 20.971 5.74551L16.7852 2.95494ZM15.7278 4.41589C15.7529 4.41371 15.778 4.42014 15.799 4.43414L18.5448 6.26466L8.3385 7.08117L6.47759 5.22026L15.7278 4.41589ZM19.6113 18.6768L8.88911 19.5016V8.82058L19.6113 7.9628V18.6768ZM5.38911 6.64593L7.11133 8.36815V18.5L5.41133 16.2333C5.3969 16.2141 5.38911 16.1907 5.38911 16.1666V6.64593ZM12.4786 10.1234L10.5022 10.2529V17.8154L12.4979 17.6846V13.3479L16.0098 17.5169L17.9861 17.3874V9.82491L15.9904 9.95571V14.2924L12.4786 10.1234Z"
      fill="currentColor"
    />
  </svg>
