<svg width="18" height="18" viewBox="0 0 18 18" fill="none" xmlns="http://www.w3.org/2000/svg">
    <path d="M7.50537 1.57783C6.4542 1.23754 5.31148 1.71087 4.80879 2.69479L4.20446 3.87767C4.13265 4.01822 4.01834 4.13253 3.87779 4.20433L2.69492 4.80867C1.71099 5.31136 1.23767 6.45408 1.57795 7.50525L1.98704 8.769C2.03565 8.91915 2.03565 9.08085 1.98704 9.231L1.57795 10.4947C1.23767 11.5459 1.71099 12.6886 2.69492 13.1914L3.87779 13.7956C4.01834 13.8675 4.13265 13.9818 4.20446 14.1223L4.80879 15.3052C5.31148 16.2892 6.4542 16.7625 7.50537 16.4222L8.76912 16.0131C8.91927 15.9645 9.08097 15.9645 9.23112 16.0131L10.4949 16.4222C11.5461 16.7625 12.6888 16.2892 13.1915 15.3052L13.7958 14.1223C13.8676 13.9818 13.9819 13.8675 14.1225 13.7956L15.3054 13.1914C16.2893 12.6886 16.7626 11.5459 16.4223 10.4947L16.0132 9.231C15.9646 9.08085 15.9646 8.91915 16.0132 8.769L16.4223 7.50525C16.7626 6.45408 16.2893 5.31136 15.3054 4.80867L14.1225 4.20433C13.9819 4.13253 13.8676 4.01822 13.7958 3.87767L13.1915 2.69479C12.6888 1.71087 11.5461 1.23754 10.4949 1.57783L9.23112 1.98692C9.08097 2.03552 8.91927 2.03553 8.76912 1.98692L7.50537 1.57783ZM5.06995 8.81797L6.13061 7.75725L8.25192 9.87862L12.4946 5.63599L13.5552 6.69664L8.25192 11.9999L5.06995 8.81797Z" fill="currentColor"/>
</svg>
