<svg width="13" height="14" viewBox="0 0 13 14" fill="none" xmlns="http://www.w3.org/2000/svg">
    <path d="M6.50014 10.25C6.88705 10.25 7.24238 10.3852 7.52145 10.611L6.50014 11.875L5.47877 10.611C5.75784 10.3852 6.11317 10.25 6.50014 10.25ZM1.5209 1.25476L11.0963 10.8302L10.3303 11.5962L7.52454 8.78976C7.20246 8.68289 6.85807 8.62499 6.50014 8.62499C5.72653 8.62499 5.01605 8.89528 4.45799 9.34659L3.77746 8.5036C4.46862 7.94476 5.33509 7.59414 6.28147 7.54707L4.87522 6.1409C4.09114 6.36266 3.37277 6.74091 2.75597 7.23973L2.0752 6.397C2.65396 5.92889 3.30838 5.55069 4.01726 5.28354L2.77974 4.04525C2.16067 4.33993 1.58206 4.70588 1.05452 5.13247L0.373535 4.28989C0.868687 3.88945 1.40384 3.53651 1.97206 3.238L0.754867 2.0208L1.5209 1.25476ZM7.85446 6.07125L6.61735 4.83464L6.50008 4.83332C8.17638 4.83332 9.7159 5.41908 10.9251 6.39706L10.2442 7.23973C9.55714 6.68403 8.74404 6.27805 7.85446 6.07125ZM6.50014 2.125C8.82107 2.125 10.9526 2.93596 12.6268 4.28998L11.9457 5.13247C10.4576 3.92907 8.56302 3.20834 6.50014 3.20834C6.0245 3.20834 5.5578 3.24665 5.10299 3.32036L4.18421 2.40171C4.92653 2.22087 5.7021 2.125 6.50014 2.125Z" fill="currentColor"/>
</svg>
