<svg width="18" height="18" viewBox="0 0 18 18" fill="none" xmlns="http://www.w3.org/2000/svg">
    <path d="M4.09693 3.32447C5.41167 2.18766 7.12553 1.5 9 1.5C13.1421 1.5 16.5 4.85786 16.5 9C16.5 10.6021 15.9977 12.0869 15.1419 13.3055L12.75 9H15C15 5.68629 12.3137 3 9 3C7.38737 3 5.92333 3.6362 4.84517 4.67132L4.09693 3.32447ZM13.9031 14.6756C12.5883 15.8123 10.8745 16.5 9 16.5C4.85786 16.5 1.5 13.1421 1.5 9C1.5 7.3979 2.00234 5.91312 2.8581 4.69458L5.25 9H3C3 12.3137 5.68629 15 9 15C10.6127 15 12.0767 14.3638 13.1549 13.3287L13.9031 14.6756Z" fill="currentColor"/>
</svg>
