<svg width="18" height="18" viewBox="0 0 18 18" fill="none" xmlns="http://www.w3.org/2000/svg">
    <path d="M9.75 14.9536C12.464 14.6152 14.6152 12.464 14.9536 9.75H12.75V8.25H14.9536C14.6152 5.53596 12.464 3.38486 9.75 3.04642V5.25H8.25V3.04642C5.53596 3.38486 3.38486 5.53596 3.04642 8.25H5.25V9.75H3.04642C3.38486 12.464 5.53596 14.6152 8.25 14.9536V12.75H9.75V14.9536ZM9 16.5C4.85786 16.5 1.5 13.1421 1.5 9C1.5 4.85786 4.85786 1.5 9 1.5C13.1421 1.5 16.5 4.85786 16.5 9C16.5 13.1421 13.1421 16.5 9 16.5ZM9 10.5C8.17155 10.5 7.5 9.82845 7.5 9C7.5 8.17155 8.17155 7.5 9 7.5C9.82845 7.5 10.5 8.17155 10.5 9C10.5 9.82845 9.82845 10.5 9 10.5Z" fill="currentColor"/>
</svg>
