<svg width="25" height="24" viewBox="0 0 25 24" fill="none" xmlns="http://www.w3.org/2000/svg">
    <path d="M3.56364 7.50914C5.20909 4.24092 8.59084 2 12.5 2C15.1954 2 17.459 2.99095 19.1909 4.60455L16.3227 7.47274C15.2864 6.48185 13.9681 5.97727 12.5 5.97727C9.89542 5.97727 7.69084 7.73637 6.90455 10.1C6.7045 10.7 6.59086 11.3409 6.59086 12C6.59086 12.6591 6.7045 13.3 6.90455 13.9C7.69084 16.2636 9.89542 18.0227 12.5 18.0227C13.8454 18.0227 14.9909 17.6682 15.8864 17.0682C16.9454 16.3591 17.65 15.3 17.8818 14.05H12.5V10.1818H21.9181C22.0364 10.8363 22.1 11.5182 22.1 12.2273C22.1 15.2727 21.0091 17.8363 19.1181 19.5773C17.4636 21.1046 15.2 22 12.5 22C8.59084 22 5.20909 19.7591 3.56364 16.4909C2.88638 15.1409 2.5 13.6136 2.5 12C2.5 10.3864 2.88638 8.85911 3.56364 7.50914Z" fill="#222326"/>
</svg>
