<svg width="25" height="24" viewBox="0 0 25 24" fill="none" xmlns="http://www.w3.org/2000/svg">
    <g clip-path="url(#clip0_502_1849)">
        <path d="M0.794098 14.7655C0.740698 14.5378 1.01189 14.3944 1.17723 14.5598L9.94021 23.3228C10.1055 23.4881 9.96217 23.7593 9.73453 23.7059C5.31236 22.6685 1.83147 19.1876 0.794098 14.7655ZM0.500454 11.2534C0.496219 11.3214 0.521783 11.3878 0.569951 11.4359L13.0641 23.93C13.1122 23.9782 13.1786 24.0038 13.2466 23.9995C13.8152 23.9641 14.3731 23.8891 14.9176 23.7773C15.1011 23.7396 15.1648 23.5142 15.0324 23.3818L1.11823 9.46764C0.985782 9.33518 0.760347 9.39892 0.722666 9.5824C0.610847 10.1269 0.535869 10.6848 0.500454 11.2534ZM1.51062 7.12929C1.47067 7.21901 1.49102 7.32384 1.56046 7.39329L17.1067 22.9395C17.1762 23.009 17.281 23.0293 17.3707 22.9894C17.7994 22.7984 18.2148 22.5831 18.6152 22.3452C18.7477 22.2665 18.7682 22.0844 18.6592 21.9754L2.52456 5.84081C2.41558 5.73182 2.23351 5.75227 2.15478 5.88477C1.91686 6.28519 1.70156 6.70063 1.51062 7.12929ZM3.53809 4.33776C3.44926 4.24893 3.44377 4.10647 3.52746 4.01277C5.72708 1.55023 8.92674 0 12.4885 0C19.1222 0 24.5 5.37775 24.5 12.0115C24.5 15.5733 22.9498 18.7729 20.4872 20.9725C20.3936 21.0562 20.2511 21.0507 20.1622 20.9619L3.53809 4.33776Z" fill="#222326"/>
    </g>
    <defs>
        <clipPath id="clip0_502_1849">
            <rect width="24" height="24" fill="white" transform="translate(0.5)"/>
        </clipPath>
    </defs>
</svg>
