<svg width="24" height="24" viewBox="0 0 24 24" fill="none" xmlns="http://www.w3.org/2000/svg">
    <path d="M0.294098 14.7655C0.240698 14.5378 0.511894 14.3945 0.67723 14.5598L9.44021 23.3228C9.60554 23.4881 9.46217 23.7593 9.23453 23.7059C4.81236 22.6685 1.33147 19.1876 0.294098 14.7655ZM0.000453923 11.2534C-0.00378058 11.3214 0.0217832 11.3878 0.0699511 11.4359L12.5641 23.93C12.6122 23.9782 12.6786 24.0038 12.7466 23.9995C13.3152 23.9641 13.8731 23.8891 14.4176 23.7773C14.6011 23.7396 14.6648 23.5142 14.5324 23.3818L0.618228 9.46764C0.485782 9.33518 0.260347 9.39892 0.222666 9.5824C0.110847 10.1269 0.0358694 10.6848 0.000453923 11.2534ZM1.01062 7.12929C0.970666 7.21901 0.991018 7.32384 1.06046 7.39329L16.6067 22.9395C16.6762 23.009 16.781 23.0293 16.8707 22.9894C17.2994 22.7984 17.7148 22.5831 18.1152 22.3452C18.2477 22.2665 18.2682 22.0844 18.1592 21.9754L2.02456 5.84081C1.91558 5.73182 1.73351 5.75227 1.65478 5.88477C1.41686 6.28519 1.20156 6.70063 1.01062 7.12929ZM3.03809 4.33776C2.94926 4.24893 2.94377 4.10647 3.02746 4.01277C5.22708 1.55023 8.42674 0 11.9885 0C18.6222 0 24 5.37775 24 12.0115C24 15.5733 22.4498 18.7729 19.9872 20.9725C19.8936 21.0562 19.7511 21.0507 19.6622 20.9619L3.03809 4.33776Z" fill="#222326"/>
</svg>
